<?xml version="1.0" encoding="UTF-8"?>
<svg xmlns="http://www.w3.org/2000/svg" xmlns:xlink="http://www.w3.org/1999/xlink" width="2625pt" height="487.499991pt" viewBox="0 0 2625 487.499991" version="1.2">
<defs>
<clipPath id="clip1">
  <path d="M 2125 29 L 2575.089844 29 L 2575.089844 458 L 2125 458 Z M 2125 29 "/>
</clipPath>
<clipPath id="clip2">
  <path d="M 1610 29 L 2060.652344 29 L 2060.652344 458 L 1610 458 Z M 1610 29 "/>
</clipPath>
<clipPath id="clip3">
  <path d="M 1088 29 L 1538.085938 29 L 1538.085938 458 L 1088 458 Z M 1088 29 "/>
</clipPath>
<clipPath id="clip4">
  <path d="M 555 29 L 1005.199219 29 L 1005.199219 458 L 555 458 Z M 555 29 "/>
</clipPath>
<clipPath id="clip5">
  <path d="M 2 29 L 452.382812 29 L 452.382812 458 L 2 458 Z M 2 29 "/>
</clipPath>
</defs>
<g id="surface1">
<g clip-path="url(#clip1)" clip-rule="nonzero">
<path style=" stroke:none;fill-rule:nonzero;fill:rgb(0%,39.608765%,98.81897%);fill-opacity:1;" d="M 2350.589844 373.617188 L 2490.003906 457.738281 L 2453.003906 299.207031 L 2576.171875 192.539062 L 2413.980469 178.785156 L 2350.589844 29.273438 L 2287.199219 178.785156 L 2125.011719 192.539062 L 2248.179688 299.207031 L 2211.175781 457.738281 Z M 2350.589844 373.617188 "/>
</g>
<g clip-path="url(#clip2)" clip-rule="nonzero">
<path style=" stroke:none;fill-rule:nonzero;fill:rgb(0%,39.608765%,98.81897%);fill-opacity:1;" d="M 1836.152344 373.617188 L 1975.566406 457.738281 L 1938.566406 299.207031 L 2061.734375 192.539062 L 1899.542969 178.785156 L 1836.152344 29.273438 L 1772.761719 178.785156 L 1610.574219 192.539062 L 1733.742188 299.207031 L 1696.742188 457.738281 Z M 1836.152344 373.617188 "/>
</g>
<g clip-path="url(#clip3)" clip-rule="nonzero">
<path style=" stroke:none;fill-rule:nonzero;fill:rgb(0%,39.608765%,98.81897%);fill-opacity:1;" d="M 1313.585938 373.617188 L 1453 457.738281 L 1416 299.207031 L 1539.167969 192.539062 L 1376.976562 178.785156 L 1313.585938 29.273438 L 1250.199219 178.785156 L 1088.007812 192.539062 L 1211.175781 299.207031 L 1174.175781 457.738281 Z M 1313.585938 373.617188 "/>
</g>
<g clip-path="url(#clip4)" clip-rule="nonzero">
<path style=" stroke:none;fill-rule:nonzero;fill:rgb(0%,39.608765%,98.81897%);fill-opacity:1;" d="M 780.699219 373.617188 L 920.113281 457.738281 L 883.113281 299.207031 L 1006.28125 192.539062 L 844.089844 178.785156 L 780.699219 29.273438 L 717.308594 178.785156 L 555.121094 192.539062 L 678.289062 299.207031 L 641.285156 457.738281 Z M 780.699219 373.617188 "/>
</g>
<g clip-path="url(#clip5)" clip-rule="nonzero">
<path style=" stroke:none;fill-rule:nonzero;fill:rgb(0%,39.608765%,98.81897%);fill-opacity:1;" d="M 227.882812 373.617188 L 367.296875 457.738281 L 330.296875 299.207031 L 453.464844 192.539062 L 291.273438 178.785156 L 227.882812 29.273438 L 164.492188 178.785156 L 2.304688 192.539062 L 125.472656 299.207031 L 88.46875 457.738281 Z M 227.882812 373.617188 "/>
</g>
</g>
</svg>
